<svg width="35" height="35" viewBox="0 0 35 35" fill="none" xmlns="http://www.w3.org/2000/svg">
<g opacity="0.9">
<path d="M4.375 23.3336L10.8937 16.8148C11.1389 16.5697 11.4299 16.3752 11.7502 16.2425C12.0704 16.1098 12.4137 16.0415 12.7604 16.0415C13.1071 16.0415 13.4504 16.1098 13.7707 16.2425C14.091 16.3752 14.382 16.5697 14.6271 16.8148L20.4167 22.6044M20.4167 22.6044L22.6042 24.7919M20.4167 22.6044L23.2896 19.7315C23.5347 19.4863 23.8257 19.2918 24.146 19.1592C24.4663 19.0265 24.8096 18.9582 25.1563 18.9582C25.5029 18.9582 25.8462 19.0265 26.1665 19.1592C26.4868 19.2918 26.7778 19.4863 27.0229 19.7315L30.625 23.3336" stroke="white" stroke-width="1.8125" stroke-linecap="round" stroke-linejoin="round"/>
<path d="M17.5002 3.646C11.3314 3.646 8.24704 3.646 6.20245 5.39308C5.91079 5.64197 5.641 5.91176 5.39308 6.20245C3.646 8.24704 3.646 11.3314 3.646 17.5002C3.646 23.6689 3.646 26.7533 5.39308 28.7979C5.64197 29.0895 5.91176 29.3593 6.20245 29.6072C8.24704 31.3543 11.3314 31.3543 17.5002 31.3543C23.6689 31.3543 26.7533 31.3543 28.7979 29.6072C29.0895 29.3584 29.3593 29.0886 29.6072 28.7979C31.3543 26.7533 31.3543 23.6689 31.3543 17.5002M31.3543 8.75016H26.2502M26.2502 8.75016H21.146M26.2502 8.75016V3.646M26.2502 8.75016V13.8543" stroke="white" stroke-width="1.8125" stroke-linecap="round" stroke-linejoin="round"/>
</g>
</svg>
