<svg width="37" height="37" viewBox="0 0 37 37" fill="none" xmlns="http://www.w3.org/2000/svg">
<path d="M18.5 4.625C26.1602 4.625 32.375 10.8398 32.375 18.5C32.375 26.1602 26.1602 32.375 18.5 32.375C10.8398 32.375 4.625 26.1602 4.625 18.5C4.625 10.8398 10.8398 4.625 18.5 4.625ZM20.376 11.9961C20.1583 12.0241 19.953 12.1136 19.7842 12.2539L13.3457 17.6104C13.2153 17.7188 13.1111 17.8552 13.0391 18.0088C12.9671 18.1623 12.9298 18.3295 12.9297 18.499C12.9297 18.6687 12.967 18.8366 13.0391 18.9902C13.1111 19.1438 13.2153 19.2802 13.3457 19.3887L19.7842 24.7451C19.953 24.8855 20.1582 24.9749 20.376 25.0029C20.5937 25.0309 20.8149 24.9964 21.0137 24.9033C21.2124 24.8102 21.3811 24.6627 21.499 24.4775C21.6169 24.2923 21.6795 24.0769 21.6797 23.8574V13.1416C21.6795 12.922 21.6169 12.7067 21.499 12.5215C21.3811 12.3363 21.2124 12.1888 21.0137 12.0957C20.8149 12.0026 20.5937 11.9681 20.376 11.9961Z" fill="white"/>
</svg>
