<svg width="35" height="35" viewBox="0 0 35 35" fill="none" xmlns="http://www.w3.org/2000/svg">
<g opacity="0.9">
<path d="M15.3125 6.5625H19.6875C19.6875 5.98234 19.457 5.42594 19.0468 5.0157C18.6366 4.60547 18.0802 4.375 17.5 4.375C16.9198 4.375 16.3634 4.60547 15.9532 5.0157C15.543 5.42594 15.3125 5.98234 15.3125 6.5625ZM13.125 6.5625C13.125 5.40218 13.5859 4.28938 14.4064 3.46891C15.2269 2.64844 16.3397 2.1875 17.5 2.1875C18.6603 2.1875 19.7731 2.64844 20.5936 3.46891C21.4141 4.28938 21.875 5.40218 21.875 6.5625H30.625C30.9151 6.5625 31.1933 6.67773 31.3984 6.88285C31.6035 7.08797 31.7188 7.36617 31.7188 7.65625C31.7188 7.94633 31.6035 8.22453 31.3984 8.42965C31.1933 8.63477 30.9151 8.75 30.625 8.75H29.3913L26.7553 28.0831C26.5765 29.3933 25.9291 30.5943 24.9329 31.4638C23.9367 32.3334 22.6592 32.8125 21.3369 32.8125H13.6631C12.3408 32.8125 11.0633 32.3334 10.0671 31.4638C9.07089 30.5943 8.42346 29.3933 8.24469 28.0831L5.60875 8.75H4.375C4.08492 8.75 3.80672 8.63477 3.6016 8.42965C3.39648 8.22453 3.28125 7.94633 3.28125 7.65625C3.28125 7.36617 3.39648 7.08797 3.6016 6.88285C3.80672 6.67773 4.08492 6.5625 4.375 6.5625H13.125ZM15.3125 14.2188C15.3125 13.9287 15.1973 13.6505 14.9921 13.4454C14.787 13.2402 14.5088 13.125 14.2188 13.125C13.9287 13.125 13.6505 13.2402 13.4454 13.4454C13.2402 13.6505 13.125 13.9287 13.125 14.2188V25.1562C13.125 25.4463 13.2402 25.7245 13.4454 25.9296C13.6505 26.1348 13.9287 26.25 14.2188 26.25C14.5088 26.25 14.787 26.1348 14.9921 25.9296C15.1973 25.7245 15.3125 25.4463 15.3125 25.1562V14.2188ZM20.7812 13.125C21.0713 13.125 21.3495 13.2402 21.5546 13.4454C21.7598 13.6505 21.875 13.9287 21.875 14.2188V25.1562C21.875 25.4463 21.7598 25.7245 21.5546 25.9296C21.3495 26.1348 21.0713 26.25 20.7812 26.25C20.4912 26.25 20.213 26.1348 20.0079 25.9296C19.8027 25.7245 19.6875 25.4463 19.6875 25.1562V14.2188C19.6875 13.9287 19.8027 13.6505 20.0079 13.4454C20.213 13.2402 20.4912 13.125 20.7812 13.125ZM10.4125 27.7878C10.5199 28.5738 10.9083 29.2942 11.5059 29.8158C12.1035 30.3374 12.8699 30.6249 13.6631 30.625H21.3369C22.1305 30.6254 22.8974 30.3382 23.4955 29.8165C24.0935 29.2949 24.4823 28.5741 24.5897 27.7878L27.1841 8.75H7.81594L10.4125 27.7878Z" fill="white"/>
</g>
</svg>
