<svg width="66" height="66" viewBox="0 0 66 66" fill="none" xmlns="http://www.w3.org/2000/svg">
<path opacity="0.5" d="M26.8826 57.7354H39.1006C47.6811 57.7354 51.9728 57.7354 55.0548 55.7147C56.385 54.8436 57.5303 53.7187 58.4254 52.4045C60.4847 49.3803 60.4847 45.1656 60.4847 36.7417C60.4847 28.3179 60.4847 24.1032 58.4254 21.0789C57.5303 19.7648 56.385 18.6399 55.0548 17.7688C53.0753 16.4684 50.5954 16.0037 46.7986 15.8388C44.9868 15.8388 43.428 14.4916 43.0733 12.7458C42.8023 11.467 42.098 10.321 41.0796 9.50148C40.0612 8.68195 38.7911 8.23916 37.484 8.24793H28.4992C25.7829 8.24793 23.4433 10.1312 22.9099 12.7458C22.5552 14.4916 20.9964 15.8388 19.1846 15.8388C15.3905 16.0037 12.9107 16.4711 10.9284 17.7688C9.59923 18.6402 8.45479 19.765 7.56051 21.0789C5.49854 24.1032 5.49854 28.3151 5.49854 36.7417C5.49854 45.1684 5.49854 49.3776 7.55777 52.4045C8.44854 53.7132 9.59225 54.8377 10.9284 55.7147C14.0104 57.7354 18.3021 57.7354 26.8826 57.7354Z" fill="white"/>
<path d="M48.2667 25.4916C47.9685 25.489 47.6727 25.5453 47.3962 25.657C47.1197 25.7688 46.868 25.934 46.6553 26.1431C46.4426 26.3522 46.2732 26.6011 46.1568 26.8756C46.0403 27.1502 45.9791 27.445 45.9766 27.7432C45.9766 28.9859 47.0021 29.9922 48.2667 29.9922H51.3212C52.5859 29.9922 53.6141 28.9832 53.6141 27.7432C53.6116 27.4448 53.5503 27.1497 53.4337 26.875C53.317 26.6003 53.1474 26.3512 52.9344 26.1421C52.7215 25.933 52.4694 25.7679 52.1926 25.6562C51.9158 25.5446 51.6197 25.4887 51.3212 25.4916H48.2667Z" fill="white"/>
<path fill-rule="evenodd" clip-rule="evenodd" d="M32.9917 25.4915C26.6683 25.4915 21.5381 30.5282 21.5381 36.7389C21.5381 42.9496 26.6655 47.9863 32.9944 47.9863C39.3179 47.9863 44.4481 42.9523 44.4481 36.7416C44.4481 30.5309 39.3206 25.4915 32.9944 25.4915M32.9944 29.9921C29.2004 29.9921 26.1212 33.0136 26.1212 36.7389C26.1212 40.4642 29.2004 43.4884 32.9944 43.4884C36.7912 43.4884 39.8677 40.4669 39.8677 36.7389C39.8677 33.0136 36.7912 29.9921 32.9944 29.9921Z" fill="white"/>
</svg>
