<svg width="28" height="28" viewBox="0 0 28 28" fill="none" xmlns="http://www.w3.org/2000/svg">
<path fill-rule="evenodd" clip-rule="evenodd" d="M24.8955 16.9415C25.9191 15.335 26.4614 13.4691 26.4582 11.5642C26.4582 6.0288 21.9713 1.5419 16.4359 1.5419C14.4569 1.5419 12.612 2.11548 11.0586 3.1046C10.0248 3.16293 9.00154 3.34357 8.01025 3.64272C9.09052 2.49112 10.3957 1.57361 11.8451 0.947011C13.2944 0.320416 14.8569 -0.0019074 16.4359 8.49113e-06C22.8224 8.49113e-06 28.0001 5.17768 28.0001 11.5642C28.002 13.1432 27.6797 14.7057 27.0531 16.155C26.4265 17.6044 25.509 18.9096 24.3574 19.9898C24.6511 19.0161 24.8361 17.9954 24.8955 16.9415Z" fill="white"/>
<path fill-rule="evenodd" clip-rule="evenodd" d="M26.4065 17.4257C25.8489 18.3735 25.1589 19.2369 24.3574 19.9899C24.6511 19.0161 24.8354 17.9954 24.8947 16.9415C25.9186 15.3351 26.4611 13.4692 26.4582 11.5642C26.4582 6.02881 21.9713 1.5419 16.4359 1.5419C14.4569 1.5419 12.612 2.11549 11.0586 3.10461C10.0248 3.16294 9.00154 3.34357 8.01025 3.64273C8.76319 2.84123 9.62661 2.15122 10.5744 1.59356C12.3503 0.547114 14.3746 -0.00323213 16.4359 1.42798e-05C22.8224 1.42798e-05 28.0001 5.17768 28.0001 11.5642C28.0001 11.6803 27.9983 11.7962 27.9947 11.9119C27.9403 13.8546 27.3938 15.7517 26.4065 17.4257Z" fill="white"/>
<path d="M11.8105 4.37939C18.333 4.37957 23.6201 9.66744 23.6201 16.1899C23.6199 22.7123 18.3329 27.9993 11.8105 27.9995C5.28805 27.9995 0.000174723 22.7124 0 16.1899C0 9.66734 5.28794 4.37939 11.8105 4.37939ZM7.70215 10.8442C7.34975 10.7268 6.69654 10.6605 6.13867 10.7192C5.58071 10.7781 4.42857 11.1525 3.83398 12.4146C3.23995 13.6768 3.72389 14.7056 3.83398 14.9038C3.9455 15.1042 4.55457 16.1008 5.60254 16.3501C6.65211 16.5996 7.37163 16.8346 7.76074 16.9741C8.32754 17.2638 8.78318 17.5745 9.14551 17.895C7.88827 18.7372 6.45349 19.3149 6.5459 20.8276C6.68153 23.0341 9.09232 22.8538 9.76855 22.2524C9.77554 22.2442 9.78216 22.2343 9.78906 22.2261C9.81952 22.2034 9.84905 22.1807 9.875 22.1567C9.88799 22.1432 9.90045 22.1282 9.91309 22.1147C9.99617 22.0093 10.078 21.9054 10.1572 21.8022C10.3 21.626 10.415 21.4607 10.5078 21.3091C10.5903 21.1829 10.672 21.0533 10.7451 20.9146C10.8312 20.7331 10.8878 20.5881 10.9355 20.4897C10.9516 20.4569 10.9666 20.4202 10.9814 20.3843C11.0489 20.2 11.1075 19.9992 11.1572 19.7788C11.2294 19.4303 11.2727 19.0254 11.2979 18.6001C11.3025 18.5322 11.3079 18.4629 11.3115 18.394C11.3132 18.3689 11.3158 18.3424 11.3174 18.3169C11.3599 17.6313 11.3377 16.9976 11.2861 16.4497C11.2365 15.8017 11.1486 15.2378 11.0381 14.896C11.0061 14.7973 10.9731 14.7008 10.9395 14.6079C10.9381 14.604 10.9368 14.5991 10.9355 14.5952V14.5981C10.7073 13.9717 10.4427 13.4742 10.1865 13.0542C9.20609 11.4469 8.05466 10.9618 7.70215 10.8442ZM17.4053 10.6997C16.8475 10.641 16.1942 10.7073 15.8418 10.8247C15.4892 10.9423 14.3378 11.4276 13.3574 13.0347C13.0618 13.5193 12.7554 14.1072 12.5059 14.8774C12.3966 15.215 12.3098 15.7687 12.2598 16.4067C12.2066 16.9602 12.1834 17.6026 12.2266 18.2983C12.2281 18.3224 12.2299 18.3469 12.2314 18.3706C12.2356 18.4505 12.2415 18.5304 12.2471 18.6089C12.2724 19.0242 12.3161 19.4191 12.3867 19.7603C12.437 19.9832 12.4971 20.1856 12.5654 20.3716C12.5795 20.4053 12.5933 20.4392 12.6084 20.4702C12.6549 20.5659 12.7097 20.7063 12.792 20.8813C12.8676 21.0261 12.9514 21.1614 13.0371 21.2925C13.1307 21.4452 13.2463 21.6119 13.3906 21.7896C13.4685 21.8909 13.5492 21.9926 13.6309 22.0962C13.6437 22.1098 13.6567 22.1244 13.6699 22.1382C13.6942 22.1606 13.7218 22.1814 13.75 22.2026C13.7583 22.2125 13.767 22.223 13.7754 22.2329C14.4512 22.8345 16.8623 23.0158 16.998 20.8091C17.0906 19.2962 15.6557 18.7187 14.3984 17.8765C14.7608 17.5558 15.2162 17.2444 15.7832 16.9546C16.1723 16.8151 16.8919 16.5801 17.9414 16.3306C18.9902 16.0811 19.6001 15.0836 19.7109 14.8843C19.8214 14.6852 20.3046 13.6575 19.7109 12.396C19.1164 11.1335 17.9633 10.7585 17.4053 10.6997Z" fill="white"/>
</svg>
