<svg width="53" height="53" viewBox="0 0 53 53" fill="none" xmlns="http://www.w3.org/2000/svg">
<g opacity="0.7">
<path d="M48.5834 28.0415C48.5789 31.2878 48.5546 34.0438 48.3714 36.3073C48.1572 38.9352 47.7177 41.1303 46.7372 42.9522C46.3088 43.7506 45.7656 44.482 45.1251 45.123C43.2856 46.9625 40.9447 47.795 37.9767 48.1925C35.0772 48.5834 31.3584 48.5834 26.6171 48.5834H26.383C21.6395 48.5834 17.9251 48.5834 15.0233 48.1925C12.0575 47.795 9.71448 46.9625 7.87715 45.123C6.2474 43.4932 5.40381 41.466 4.95773 38.9507C4.51606 36.4773 4.43656 33.4033 4.42111 29.5851C4.41669 28.6135 4.41522 27.5851 4.41669 26.5001V26.3808C4.41669 21.6373 4.41669 17.9229 4.80756 15.0212C5.20506 12.0554 6.03761 9.71234 7.87715 7.87501C9.71669 6.03768 12.0575 5.20293 15.0233 4.80543C17.6026 4.45872 20.9196 4.41897 24.9586 4.41455C25.3674 4.41455 25.7595 4.57695 26.0486 4.86602C26.3376 5.15509 26.5 5.54716 26.5 5.95597C26.5 6.36478 26.3376 6.75684 26.0486 7.04591C25.7595 7.33499 25.3674 7.49738 24.9586 7.49738C20.8621 7.5018 17.8169 7.53713 15.4341 7.85734C12.8084 8.21068 11.225 8.88201 10.0546 10.0524C8.88415 11.2228 8.21502 12.8084 7.86169 15.4363C7.50173 18.1084 7.49731 21.6153 7.49731 26.5001V28.2314L9.55548 26.4338C10.4576 25.6445 11.6261 25.2275 12.8241 25.2673C14.0222 25.307 15.1604 25.8006 16.0082 26.6481L24.8195 35.4593C25.5031 36.1433 26.4062 36.5642 27.3696 36.6478C28.333 36.7314 29.2951 36.4724 30.0864 35.9164L30.7003 35.4858C31.8415 34.6837 33.2211 34.2925 34.6135 34.3764C36.0059 34.4602 37.3287 35.0141 38.3654 35.9473L44.1799 41.1811C44.7652 39.951 45.1141 38.3368 45.2996 36.0578C45.474 33.9113 45.4983 31.3054 45.5005 28.0415C45.5005 27.6327 45.6629 27.2406 45.952 26.9516C46.2411 26.6625 46.6331 26.5001 47.0419 26.5001C47.4508 26.5001 47.8428 26.6625 48.1319 26.9516C48.421 27.2406 48.5834 27.6327 48.5834 28.0415Z" fill="white"/>
<path fill-rule="evenodd" clip-rule="evenodd" d="M38.6458 24.2917C33.9619 24.2917 31.6189 24.2917 30.1636 22.8365C28.7083 21.3812 28.7083 19.0381 28.7083 14.3542C28.7083 9.67037 28.7083 7.32733 30.1636 5.87204C31.6189 4.41675 33.9619 4.41675 38.6458 4.41675C43.3297 4.41675 45.6727 4.41675 47.128 5.87204C48.5833 7.32733 48.5833 9.67037 48.5833 14.3542C48.5833 19.0381 48.5833 21.3812 47.128 22.8365C45.6727 24.2917 43.3297 24.2917 38.6458 24.2917ZM43.5306 9.46941C43.9376 9.8765 44.1663 10.4286 44.1663 11.0042C44.1663 11.5798 43.9376 12.1319 43.5306 12.539L43.4026 12.6671C43.3425 12.7273 43.2688 12.7722 43.1877 12.798C43.1066 12.8237 43.0204 12.8296 42.9366 12.815C42.259 12.6761 41.637 12.3413 41.1479 11.8522C40.6587 11.3631 40.324 10.7411 40.185 10.0635C40.1705 9.97962 40.1763 9.8935 40.2021 9.8124C40.2278 9.73129 40.2727 9.65758 40.333 9.5975L40.4611 9.46941C40.8682 9.06243 41.4202 8.83379 41.9959 8.83379C42.5715 8.83379 43.1236 9.06243 43.5306 9.46941ZM38.3146 17.7551C38.1109 17.975 37.8925 18.1809 37.6609 18.3712C37.4539 18.5333 37.2295 18.6718 36.9918 18.7842C36.793 18.8791 36.5766 18.952 36.1504 19.0933L33.8957 19.8442C33.7927 19.8784 33.6821 19.8832 33.5765 19.8582C33.4709 19.8332 33.3743 19.7793 33.2975 19.7026C33.2207 19.6258 33.1668 19.5292 33.1418 19.4236C33.1168 19.3179 33.1217 19.2074 33.1559 19.1044L33.9067 16.8519C34.0481 16.4235 34.1209 16.2092 34.2159 16.0083C34.3293 15.7683 34.4669 15.5453 34.6289 15.3392C34.7658 15.1625 34.9248 15.0035 35.245 14.6855L39.2178 10.7127C39.3127 10.6177 39.4784 10.6619 39.5225 10.79C39.7394 11.4113 40.0937 11.9757 40.559 12.4411C41.0243 12.9064 41.5887 13.2607 42.2101 13.4775C42.3381 13.5217 42.3823 13.6873 42.2874 13.7823L38.3146 17.7551Z" fill="white"/>
</g>
</svg>
