<svg width="29" height="28" viewBox="0 0 29 28" fill="none" xmlns="http://www.w3.org/2000/svg">
<path d="M12.0833 17.5C11.741 17.5 11.4542 17.388 11.223 17.1639C10.9918 16.9399 10.8758 16.6631 10.875 16.3333V13.5041C10.875 13.193 10.9354 12.8963 11.0562 12.614C11.1771 12.3316 11.3483 12.0839 11.5698 11.8708L21.9615 1.83745C22.2031 1.60412 22.475 1.42912 22.7771 1.31245C23.0792 1.19578 23.3812 1.13745 23.6833 1.13745C24.0056 1.13745 24.3129 1.19578 24.6053 1.31245C24.8977 1.42912 25.1643 1.60412 25.4052 1.83745L27.0969 3.49995C27.3184 3.73328 27.4896 3.99112 27.6104 4.27345C27.7312 4.55578 27.7917 4.8424 27.7917 5.13328C27.7917 5.42417 27.7365 5.71117 27.6261 5.99428C27.5158 6.2774 27.3393 6.53484 27.0969 6.76662L16.7052 16.7999C16.4837 17.0138 16.2271 17.1842 15.9355 17.311C15.6439 17.4377 15.3366 17.5007 15.0135 17.5H12.0833ZM23.6833 6.76662L25.4052 5.13328L23.7135 3.49995L21.9917 5.13328L23.6833 6.76662ZM6.04167 24.5C5.37708 24.5 4.80836 24.2717 4.3355 23.8151C3.86264 23.3586 3.62581 22.8091 3.625 22.1666V5.83328C3.625 5.19162 3.86183 4.64251 4.3355 4.18595C4.80917 3.7294 5.37789 3.50073 6.04167 3.49995H13.8958C14.1778 3.49995 14.4094 3.56801 14.5906 3.70412C14.7719 3.84023 14.9128 4.01523 15.0135 4.22912C15.1142 4.44301 15.1493 4.6569 15.1187 4.87078C15.0881 5.08467 14.9725 5.28884 14.7719 5.48328L9.15312 10.9083C8.9316 11.1222 8.76042 11.3703 8.63958 11.6526C8.51875 11.9349 8.45833 12.2313 8.45833 12.5416V17.5C8.45833 18.1416 8.69517 18.6907 9.16883 19.1473C9.6425 19.6038 10.2112 19.8325 10.875 19.8333H15.9802C16.3024 19.8333 16.6097 19.775 16.9022 19.6583C17.1946 19.5416 17.4512 19.3763 17.6719 19.1624L23.3208 13.7083C23.5222 13.5138 23.7337 13.4018 23.9552 13.3723C24.1767 13.3427 24.3983 13.377 24.6198 13.475C24.8413 13.573 25.0226 13.7091 25.1635 13.8833C25.3045 14.0575 25.375 14.2811 25.375 14.5541V22.1666C25.375 22.8083 25.1386 23.3578 24.6657 23.8151C24.1928 24.2724 23.6237 24.5007 22.9583 24.5H6.04167Z" fill="white"/>
<path d="M12.0833 17.5C11.741 17.5 11.4542 17.388 11.223 17.1639C10.9918 16.9399 10.8758 16.6631 10.875 16.3333V13.5041C10.875 13.193 10.9354 12.8963 11.0562 12.614C11.1771 12.3316 11.3483 12.0839 11.5698 11.8708L21.9615 1.83745C22.2031 1.60412 22.475 1.42912 22.7771 1.31245C23.0792 1.19578 23.3812 1.13745 23.6833 1.13745C24.0056 1.13745 24.3129 1.19578 24.6053 1.31245C24.8977 1.42912 25.1643 1.60412 25.4052 1.83745L27.0969 3.49995C27.3184 3.73328 27.4896 3.99112 27.6104 4.27345C27.7312 4.55578 27.7917 4.8424 27.7917 5.13328C27.7917 5.42417 27.7365 5.71117 27.6261 5.99428C27.5158 6.2774 27.3393 6.53484 27.0969 6.76662L16.7052 16.7999C16.4837 17.0138 16.2271 17.1842 15.9355 17.311C15.6439 17.4377 15.3366 17.5007 15.0135 17.5H12.0833ZM23.6833 6.76662L25.4052 5.13328L23.7135 3.49995L21.9917 5.13328L23.6833 6.76662ZM6.04167 24.5C5.37708 24.5 4.80836 24.2717 4.3355 23.8151C3.86264 23.3586 3.62581 22.8091 3.625 22.1666V5.83328C3.625 5.19162 3.86183 4.64251 4.3355 4.18595C4.80917 3.7294 5.37789 3.50073 6.04167 3.49995H13.8958C14.1778 3.49995 14.4094 3.56801 14.5906 3.70412C14.7719 3.84023 14.9128 4.01523 15.0135 4.22912C15.1142 4.44301 15.1493 4.6569 15.1187 4.87078C15.0881 5.08467 14.9725 5.28884 14.7719 5.48328L9.15312 10.9083C8.9316 11.1222 8.76042 11.3703 8.63958 11.6526C8.51875 11.9349 8.45833 12.2313 8.45833 12.5416V17.5C8.45833 18.1416 8.69517 18.6907 9.16883 19.1473C9.6425 19.6038 10.2112 19.8325 10.875 19.8333H15.9802C16.3024 19.8333 16.6097 19.775 16.9022 19.6583C17.1946 19.5416 17.4512 19.3763 17.6719 19.1624L23.3208 13.7083C23.5222 13.5138 23.7337 13.4018 23.9552 13.3723C24.1767 13.3427 24.3983 13.377 24.6198 13.475C24.8413 13.573 25.0226 13.7091 25.1635 13.8833C25.3045 14.0575 25.375 14.2811 25.375 14.5541V22.1666C25.375 22.8083 25.1386 23.3578 24.6657 23.8151C24.1928 24.2724 23.6237 24.5007 22.9583 24.5H6.04167Z" fill="url(#paint0_linear_933_5080)"/>
<defs>
<linearGradient id="paint0_linear_933_5080" x1="3.625" y1="6.07952" x2="34.4568" y2="18.5788" gradientUnits="userSpaceOnUse">
<stop stop-color="#F35100"/>
<stop offset="1" stop-color="#FE9764"/>
</linearGradient>
</defs>
</svg>
