<svg width="76" height="57" viewBox="0 0 76 57" fill="none" xmlns="http://www.w3.org/2000/svg">
<path d="M36.0495 36.1516C36.5669 27.8184 35.0622 21.1622 34.2793 18.8928C35.9473 36.6622 13.1398 34.9942 13.9228 47.7936C14.5491 58.0332 25.735 57.189 28.8668 54.3976C32.9858 49.5297 35.4027 46.5682 36.0495 36.1516Z" fill="white"/>
<path d="M39.138 35.3347C38.6206 27.0015 40.1253 20.3453 40.9082 18.0759C39.2402 35.8453 62.0477 34.1773 61.2647 46.9767C60.6384 57.2163 49.4525 56.3721 46.3207 53.5807C42.2017 48.7128 39.7848 45.7513 39.138 35.3347Z" fill="white"/>
<path d="M19.559 29.9214C35.5446 38.0913 32.4978 49.756 28.6285 54.5671C32.6453 50.6534 33.5644 47.4879 34.2112 46.16C36.9417 40.5542 36.3777 25.2956 34.7559 20.2888C33.5985 16.7158 32.1782 13.9923 30.8071 11.7445C26.2602 4.29063 20.9206 2.04182 19.2866 1.49717C17.6527 0.952511 14.623 0.646142 12.0359 0.91847C9.44877 1.1908 4.10436 2.92689 1.34704 8.78194C-1.41029 14.637 0.836421 19.4027 1.34704 20.3218C1.85765 21.241 4.68306 25.8705 9.55092 27.0279C14.4188 28.1853 17.7548 29.2746 19.559 29.9214Z" fill="white"/>
<path d="M55.6288 29.104C39.6431 37.2739 42.6899 48.9386 46.5592 53.7497C42.5424 49.836 41.6233 46.6705 40.9765 45.3426C38.246 39.7368 38.8101 24.4782 40.4319 19.4715C41.5893 15.8985 43.0095 13.1749 44.3806 10.9272C48.9275 3.47325 54.2672 1.22444 55.9011 0.679784C57.5351 0.135128 60.5647 -0.171241 63.1519 0.101087C65.739 0.373415 71.0834 2.10951 73.8407 7.96456C76.598 13.8196 74.3513 18.5854 73.8407 19.5045C73.3301 20.4236 70.5047 25.0531 65.6368 26.2105C60.769 27.3679 57.4329 28.4572 55.6288 29.104Z" fill="white"/>
<path d="M34.0532 18.3119C34.5249 19.573 34.9338 20.9552 35.2654 22.5974C36.1376 27.7657 36.5259 36.8951 35.3482 42.7756C35.1064 43.8785 34.8129 44.8705 34.4773 45.7809C34.4131 45.9337 34.3485 46.0817 34.2799 46.2227C34.0584 46.6773 33.8036 47.3465 33.405 48.1881C32.31 50.2686 30.9639 51.9584 29.5144 53.7973C29.4463 53.8695 29.3773 53.9419 29.3071 54.0147C29.1926 54.117 29.069 54.2169 28.9371 54.3145C32.0587 50.1582 34.3801 41.5895 26.0115 34.2192C30.8522 30.7553 35.1911 26.5162 34.0532 18.3119Z" fill="white"/>
<path d="M41.1362 17.495C40.6644 18.7567 40.2537 20.1393 39.922 21.7824C39.0491 26.9566 38.6622 36.0984 39.8443 41.9775C40.0844 43.0684 40.3748 44.0509 40.7068 44.9531C40.7724 45.1098 40.8383 45.2614 40.9086 45.4058C41.1317 45.8638 41.3887 46.5397 41.7924 47.3902C42.8845 49.4602 44.2259 51.144 45.6694 52.9753C45.7392 53.0493 45.8094 53.1242 45.8814 53.1988C45.996 53.3012 46.1201 53.4009 46.2523 53.4987C43.1303 49.3427 40.8078 40.7732 49.177 33.4023C44.3363 29.9384 39.9982 25.6994 41.1362 17.495Z" fill="white"/>
</svg>
