<svg width="24" height="24" viewBox="0 0 24 24" fill="none" xmlns="http://www.w3.org/2000/svg">
<path d="M9.367 2.25H11.5C11.6989 2.25 11.8897 2.32902 12.0303 2.46967C12.171 2.61032 12.25 2.80109 12.25 3C12.25 3.19891 12.171 3.38968 12.0303 3.53033C11.8897 3.67098 11.6989 3.75 11.5 3.75H9.4C8.268 3.75 7.463 3.75 6.834 3.802C6.214 3.852 5.829 3.949 5.524 4.104C4.91263 4.41556 4.41556 4.91263 4.104 5.524C3.949 5.829 3.853 6.214 3.802 6.834C3.751 7.464 3.75 8.268 3.75 9.4V14.6C3.75 15.733 3.75 16.537 3.802 17.166C3.852 17.786 3.949 18.171 4.104 18.476C4.41556 19.0874 4.91263 19.5844 5.524 19.896C5.829 20.051 6.214 20.147 6.834 20.198C7.464 20.249 8.268 20.25 9.4 20.25H14.6C15.733 20.25 16.537 20.25 17.166 20.198C17.786 20.148 18.171 20.051 18.476 19.896C19.0874 19.5844 19.5844 19.0874 19.896 18.476C20.051 18.171 20.147 17.786 20.198 17.166C20.249 16.536 20.25 15.732 20.25 14.6V12.5C20.25 12.3011 20.329 12.1103 20.4697 11.9697C20.6103 11.829 20.8011 11.75 21 11.75C21.1989 11.75 21.3897 11.829 21.5303 11.9697C21.671 12.1103 21.75 12.3011 21.75 12.5V14.633C21.75 15.725 21.75 16.591 21.693 17.288C21.635 18.002 21.513 18.605 21.233 19.157C20.7774 20.0505 20.0507 20.7768 19.157 21.232C18.605 21.513 18.002 21.635 17.288 21.693C16.591 21.75 15.725 21.75 14.633 21.75H9.367C8.275 21.75 7.409 21.75 6.712 21.693C5.998 21.635 5.395 21.513 4.844 21.233C3.95014 20.7776 3.22341 20.0509 2.768 19.157C2.487 18.605 2.365 18.002 2.307 17.288C2.25 16.591 2.25 15.725 2.25 14.633V9.367C2.25 8.275 2.25 7.409 2.307 6.712C2.365 5.998 2.487 5.395 2.767 4.844C3.22267 3.94999 3.94977 3.22324 4.844 2.768C5.394 2.487 5.998 2.365 6.712 2.307C7.409 2.25 8.275 2.25 9.367 2.25Z" fill="white"/>
<path d="M15.0164 4.41061C14.8405 4.83525 14.75 5.29037 14.75 5.75C14.75 6.67826 15.1187 7.5685 15.7751 8.22487C16.4315 8.88125 17.3217 9.25 18.25 9.25C19.1783 9.25 20.0685 8.88125 20.7249 8.22487C21.3813 7.5685 21.75 6.67826 21.75 5.75C21.75 5.29037 21.6595 4.83525 21.4836 4.41061C21.3077 3.98597 21.0499 3.60013 20.7249 3.27513C20.3999 2.95012 20.014 2.69231 19.5894 2.51642C19.1648 2.34053 18.7096 2.25 18.25 2.25C17.7904 2.25 17.3352 2.34053 16.9106 2.51642C16.486 2.69231 16.1001 2.95012 15.7751 3.27513C15.4501 3.60013 15.1923 3.98597 15.0164 4.41061Z" fill="white"/>
<path d="M15.0164 4.41061C14.8405 4.83525 14.75 5.29037 14.75 5.75C14.75 6.67826 15.1187 7.5685 15.7751 8.22487C16.4315 8.88125 17.3217 9.25 18.25 9.25C19.1783 9.25 20.0685 8.88125 20.7249 8.22487C21.3813 7.5685 21.75 6.67826 21.75 5.75C21.75 5.29037 21.6595 4.83525 21.4836 4.41061C21.3077 3.98597 21.0499 3.60013 20.7249 3.27513C20.3999 2.95012 20.014 2.69231 19.5894 2.51642C19.1648 2.34053 18.7096 2.25 18.25 2.25C17.7904 2.25 17.3352 2.34053 16.9106 2.51642C16.486 2.69231 16.1001 2.95012 15.7751 3.27513C15.4501 3.60013 15.1923 3.98597 15.0164 4.41061Z" fill="url(#paint0_linear_776_3339)"/>
<defs>
<linearGradient id="paint0_linear_776_3339" x1="14.75" y1="3.73077" x2="23.7639" y2="7.26341" gradientUnits="userSpaceOnUse">
<stop stop-color="#F35100"/>
<stop offset="1" stop-color="#FE9764"/>
</linearGradient>
</defs>
</svg>
