<svg width="16" height="16" viewBox="0 0 16 16" fill="none" xmlns="http://www.w3.org/2000/svg">
<path d="M12.1667 16C11.5185 16 10.9676 15.7667 10.5139 15.3C10.0602 14.8333 9.83333 14.2667 9.83333 13.6C9.83333 13.52 9.85278 13.3333 9.89167 13.04L4.42778 9.76C4.22037 9.96 3.98056 10.1168 3.70833 10.2304C3.43611 10.344 3.14444 10.4005 2.83333 10.4C2.18519 10.4 1.63426 10.1667 1.18056 9.7C0.726852 9.23333 0.5 8.66667 0.5 8C0.5 7.33333 0.726852 6.76667 1.18056 6.3C1.63426 5.83333 2.18519 5.6 2.83333 5.6C3.14444 5.6 3.43611 5.6568 3.70833 5.7704C3.98056 5.884 4.22037 6.04053 4.42778 6.24L9.89167 2.96C9.86574 2.86667 9.84967 2.7768 9.84344 2.6904C9.83722 2.604 9.83385 2.5072 9.83333 2.4C9.83333 1.73333 10.0602 1.16667 10.5139 0.7C10.9676 0.233333 11.5185 0 12.1667 0C12.8148 0 13.3657 0.233333 13.8194 0.7C14.2731 1.16667 14.5 1.73333 14.5 2.4C14.5 3.06667 14.2731 3.63333 13.8194 4.1C13.3657 4.56667 12.8148 4.8 12.1667 4.8C11.8556 4.8 11.5639 4.7432 11.2917 4.6296C11.0194 4.516 10.7796 4.35947 10.5722 4.16L5.10833 7.44C5.13426 7.53333 5.15059 7.62347 5.15733 7.7104C5.16407 7.79733 5.16719 7.89387 5.16667 8C5.16615 8.10613 5.16304 8.20293 5.15733 8.2904C5.15163 8.37787 5.1353 8.46773 5.10833 8.56L10.5722 11.84C10.7796 11.64 11.0194 11.4835 11.2917 11.3704C11.5639 11.2573 11.8556 11.2005 12.1667 11.2C12.8148 11.2 13.3657 11.4333 13.8194 11.9C14.2731 12.3667 14.5 12.9333 14.5 13.6C14.5 14.2667 14.2731 14.8333 13.8194 15.3C13.3657 15.7667 12.8148 16 12.1667 16Z" fill="black"/>
</svg>
