<svg width="20" height="20" viewBox="0 0 20 20" fill="none" xmlns="http://www.w3.org/2000/svg">
<g clip-path="url(#clip0_886_3132)">
<path d="M7.62753 4.50699C8.68337 2.61366 9.21087 1.66699 10 1.66699C10.7892 1.66699 11.3167 2.61366 12.3725 4.50699L12.6459 4.99699C12.9459 5.53533 13.0959 5.80449 13.3292 5.98199C13.5625 6.15949 13.8542 6.22533 14.4375 6.35699L14.9675 6.47699C17.0175 6.94116 18.0417 7.17283 18.2859 7.95699C18.5292 8.74033 17.8309 9.55783 16.4334 11.192L16.0717 11.6145C15.675 12.0787 15.4759 12.3112 15.3867 12.5978C15.2975 12.8853 15.3275 13.1953 15.3875 13.8145L15.4425 14.3787C15.6534 16.5595 15.7592 17.6495 15.1209 18.1337C14.4825 18.6178 13.5225 18.1762 11.6042 17.2928L11.1067 17.0645C10.5617 16.8128 10.2892 16.6878 10 16.6878C9.71087 16.6878 9.43837 16.8128 8.89337 17.0645L8.3967 17.2928C6.47753 18.1762 5.51753 18.6178 4.88003 18.1345C4.24087 17.6495 4.3467 16.5595 4.55753 14.3787L4.61253 13.8153C4.67253 13.1953 4.70253 12.8853 4.61253 12.5987C4.5242 12.3112 4.32503 12.0787 3.92837 11.6153L3.5667 11.192C2.1692 9.55866 1.47087 8.74116 1.7142 7.95699C1.95753 7.17283 2.98337 6.94033 5.03337 6.47699L5.56337 6.35699C6.14587 6.22533 6.4367 6.15949 6.67087 5.98199C6.90503 5.80449 7.0542 5.53533 7.3542 4.99699L7.62753 4.50699Z" stroke="white" stroke-width="1.5"/>
</g>
<defs>
<clipPath id="clip0_886_3132">
<rect width="20" height="20" fill="white"/>
</clipPath>
</defs>
</svg>
