<svg width="37" height="37" viewBox="0 0 37 37" fill="none" xmlns="http://www.w3.org/2000/svg">
<path fill-rule="evenodd" clip-rule="evenodd" d="M16.8348 3.93762C17.035 4.00037 17.2203 4.10035 17.3802 4.23184C17.5401 4.36334 17.6714 4.52377 17.7667 4.70399C17.862 4.88421 17.9193 5.08067 17.9355 5.28217C17.9516 5.48366 17.9263 5.68623 17.8608 5.87832C17.4135 7.1882 17.472 8.60877 18.0254 9.88074C18.1064 10.0673 18.1483 10.2673 18.1488 10.4695C18.1492 10.6716 18.1081 10.8718 18.0279 11.0586C17.9478 11.2455 17.83 11.4154 17.6814 11.5586C17.5328 11.7018 17.3562 11.8155 17.1618 11.8932C16.9674 11.971 16.759 12.0112 16.5484 12.0116C16.3378 12.012 16.1292 11.9726 15.9345 11.8956C15.7398 11.8187 15.5627 11.7057 15.4135 11.563C15.2643 11.4204 15.1458 11.251 15.0648 11.0644C14.2155 9.11256 14.1252 6.93275 14.8105 4.92233C14.8758 4.73 14.9801 4.55192 15.1173 4.3983C15.2544 4.24468 15.4218 4.11853 15.6098 4.02706C15.7979 3.9356 16.0028 3.88062 16.213 3.86527C16.4232 3.84993 16.6345 3.87451 16.8348 3.93762ZM11.8627 9.96485C11.9214 9.5606 11.8103 9.15053 11.554 8.82486C11.427 8.6636 11.2682 8.52792 11.0867 8.42556C10.9051 8.3232 10.7043 8.25616 10.4957 8.22828C10.0745 8.17197 9.6472 8.27855 9.30785 8.52458C8.96851 8.77062 8.7449 9.13594 8.68622 9.5402C8.48907 10.8983 8.81597 12.2787 9.6054 13.4216C9.72066 13.5923 9.87006 13.7394 10.0449 13.8544C10.2198 13.9694 10.4168 14.0499 10.6243 14.0913C10.8318 14.1328 11.0459 14.1343 11.254 14.0959C11.4622 14.0574 11.6603 13.9797 11.837 13.8673C12.0137 13.7548 12.1653 13.6099 12.2832 13.4408C12.4011 13.2717 12.4829 13.0819 12.5239 12.8823C12.5649 12.6827 12.5642 12.4773 12.5219 12.2779C12.4795 12.0786 12.3965 11.8892 12.2774 11.7209C11.9207 11.2037 11.7732 10.5792 11.8627 9.96485ZM5.67006 20.2899C6.22584 19.9925 6.87353 19.9042 7.4913 20.0376C7.69879 20.0887 7.91484 20.0993 8.1267 20.069C8.33855 20.0386 8.54192 19.9678 8.72478 19.8607C8.90764 19.7536 9.06629 19.6125 9.19135 19.4456C9.31642 19.2787 9.40536 19.0894 9.45293 18.889C9.5005 18.6885 9.50574 18.481 9.46833 18.2785C9.43091 18.0761 9.35161 17.8829 9.23511 17.7104C9.1186 17.5379 8.96726 17.3896 8.79001 17.2741C8.61276 17.1587 8.4132 17.0785 8.20312 17.0383C6.81217 16.7341 5.35312 16.9351 4.10747 17.6025C3.9236 17.701 3.76174 17.8332 3.63113 17.9917C3.50052 18.1502 3.40372 18.3318 3.34626 18.5262C3.2302 18.9189 3.28142 19.3396 3.48863 19.696C3.69584 20.0524 4.04208 20.3152 4.45118 20.4265C4.86028 20.5379 5.29872 20.4888 5.67006 20.2899ZM26.6571 31.4212C27.3707 31.3918 28.0474 31.1088 28.5558 30.6273C29.0642 30.1459 29.368 29.5002 29.4082 28.8158C29.7139 23.7856 27.6447 18.5441 24.8188 13.875C24.6053 13.5226 24.3183 13.2163 23.9759 12.9753C23.6334 12.7342 23.2428 12.5636 22.8285 12.4741C22.4141 12.3845 21.985 12.378 21.568 12.4549C21.1509 12.5318 20.7548 12.6905 20.4046 12.921C18.7287 14.0124 16.1807 15.748 14.6972 17.1512C13.218 18.5523 11.3753 20.9751 10.2168 22.5671C9.97151 22.9001 9.80057 23.2781 9.71462 23.6775C9.62867 24.0769 9.62957 24.489 9.71726 24.888C9.80495 25.287 9.97755 25.6644 10.2242 25.9964C10.4709 26.3285 10.7864 26.6081 11.1509 26.8177C15.9755 29.5933 21.4093 31.6469 26.6571 31.4212ZM4.53285 13.317C4.95805 13.317 5.36583 13.1549 5.66649 12.8663C5.96715 12.5778 6.13606 12.1864 6.13606 11.7784C6.13606 11.3703 5.96715 10.9789 5.66649 10.6904C5.36583 10.4019 4.95805 10.2397 4.53285 10.2397H3.46405C3.03885 10.2397 2.63107 10.4019 2.33041 10.6904C2.02975 10.9789 1.86084 11.3703 1.86084 11.7784C1.86084 12.1864 2.02975 12.5778 2.33041 12.8663C2.63107 13.1549 3.03885 13.317 3.46405 13.317H4.53285Z" fill="white"/>
</svg>
