<svg width="45" height="46" viewBox="0 0 45 46" fill="none" xmlns="http://www.w3.org/2000/svg">
<path fill-rule="evenodd" clip-rule="evenodd" d="M23.2834 4.97594C23.5309 5.05523 23.76 5.18156 23.9576 5.34773C24.1553 5.51389 24.3177 5.71663 24.4354 5.94437C24.5532 6.1721 24.6241 6.42037 24.6441 6.67499C24.6641 6.92961 24.6327 7.18559 24.5518 7.42832C23.9988 9.08357 24.0711 10.8787 24.7553 12.486C24.8554 12.7218 24.9072 12.9746 24.9077 13.23C24.9083 13.4854 24.8575 13.7384 24.7584 13.9745C24.6592 14.2107 24.5137 14.4253 24.33 14.6063C24.1463 14.7873 23.928 14.9309 23.6877 15.0292C23.4474 15.1274 23.1897 15.1782 22.9294 15.1787C22.6691 15.1792 22.4112 15.1295 22.1705 15.0322C21.9297 14.9349 21.7109 14.7921 21.5265 14.6119C21.342 14.4317 21.1955 14.2176 21.0954 13.9818C20.0454 11.5153 19.9338 8.76077 20.781 6.22028C20.8618 5.97723 20.9906 5.7522 21.1602 5.55808C21.3298 5.36395 21.5367 5.20454 21.7691 5.08896C22.0016 4.97338 22.255 4.9039 22.5148 4.88451C22.7746 4.86512 23.0358 4.89618 23.2834 4.97594ZM17.137 12.5923C17.2095 12.0815 17.0722 11.5633 16.7553 11.1518C16.5984 10.948 16.4021 10.7765 16.1776 10.6472C15.9531 10.5178 15.7049 10.4331 15.4471 10.3979C14.9264 10.3267 14.3982 10.4614 13.9787 10.7723C13.5592 11.0832 13.2827 11.5449 13.2102 12.0557C12.9665 13.7719 13.3706 15.5162 14.3465 16.9605C14.489 17.1762 14.6736 17.3621 14.8899 17.5074C15.1061 17.6527 15.3495 17.7545 15.606 17.8068C15.8626 17.8592 16.1272 17.8611 16.3845 17.8125C16.6418 17.7639 16.8868 17.6657 17.1052 17.5237C17.3236 17.3816 17.5111 17.1984 17.6568 16.9848C17.8026 16.7711 17.9037 16.5312 17.9543 16.279C18.005 16.0267 18.0041 15.7672 17.9518 15.5153C17.8995 15.2633 17.7968 15.0241 17.6496 14.8114C17.2087 14.1578 17.0264 13.3686 17.137 12.5923ZM9.48164 25.6397C10.1687 25.2639 10.9694 25.1524 11.733 25.3209C11.9895 25.3855 12.2566 25.3989 12.5185 25.3605C12.7804 25.3222 13.0318 25.2327 13.2579 25.0974C13.4839 24.962 13.68 24.7837 13.8346 24.5728C13.9892 24.3619 14.0992 24.1227 14.158 23.8694C14.2168 23.6161 14.2233 23.3538 14.177 23.098C14.1308 22.8422 14.0328 22.5981 13.8887 22.3801C13.7447 22.1622 13.5576 21.9747 13.3385 21.8288C13.1194 21.6829 12.8727 21.5816 12.613 21.5308C10.8935 21.1464 9.08983 21.4004 7.54997 22.2437C7.32267 22.3682 7.12259 22.5353 6.96113 22.7356C6.79967 22.9359 6.68001 23.1654 6.60897 23.4111C6.4655 23.9072 6.52881 24.4389 6.78497 24.8893C7.04112 25.3396 7.46914 25.6717 7.97487 25.8124C8.48059 25.9532 9.02259 25.891 9.48164 25.6397ZM35.4257 39.706C36.3078 39.6688 37.1444 39.3112 37.7729 38.7028C38.4014 38.0944 38.7769 37.2785 38.8266 36.4137C39.2045 30.0572 36.6465 23.4336 33.1531 17.5334C32.8892 17.0881 32.5345 16.7011 32.1112 16.3965C31.6878 16.0919 31.2049 15.8763 30.6927 15.7631C30.1806 15.65 29.6501 15.6418 29.1345 15.7389C28.6189 15.8361 28.1294 16.0366 27.6964 16.3279C25.6247 17.7071 22.4748 19.9002 20.6409 21.6734C18.8123 23.444 16.5345 26.5056 15.1022 28.5173C14.7991 28.9381 14.5878 29.4159 14.4815 29.9205C14.3753 30.4252 14.3764 30.946 14.4848 31.4502C14.5932 31.9544 14.8065 32.4313 15.1115 32.8509C15.4164 33.2705 15.8064 33.6238 16.257 33.8887C22.2211 37.3962 28.9384 39.9911 35.4257 39.706ZM8.07583 16.8283C8.60145 16.8283 9.10555 16.6234 9.47722 16.2588C9.8489 15.8942 10.0577 15.3996 10.0577 14.884C10.0577 14.3683 9.8489 13.8738 9.47722 13.5092C9.10555 13.1446 8.60145 12.9397 8.07583 12.9397H6.75458C6.22895 12.9397 5.72486 13.1446 5.35318 13.5092C4.98151 13.8738 4.77271 14.3683 4.77271 14.884C4.77271 15.3996 4.98151 15.8942 5.35318 16.2588C5.72486 16.6234 6.22895 16.8283 6.75458 16.8283H8.07583Z" fill="white"/>
<path fill-rule="evenodd" clip-rule="evenodd" d="M23.2834 4.97594C23.5309 5.05523 23.76 5.18156 23.9576 5.34773C24.1553 5.51389 24.3177 5.71663 24.4354 5.94437C24.5532 6.1721 24.6241 6.42037 24.6441 6.67499C24.6641 6.92961 24.6327 7.18559 24.5518 7.42832C23.9988 9.08357 24.0711 10.8787 24.7553 12.486C24.8554 12.7218 24.9072 12.9746 24.9077 13.23C24.9083 13.4854 24.8575 13.7384 24.7584 13.9745C24.6592 14.2107 24.5137 14.4253 24.33 14.6063C24.1463 14.7873 23.928 14.9309 23.6877 15.0292C23.4474 15.1274 23.1897 15.1782 22.9294 15.1787C22.6691 15.1792 22.4112 15.1295 22.1705 15.0322C21.9297 14.9349 21.7109 14.7921 21.5265 14.6119C21.342 14.4317 21.1955 14.2176 21.0954 13.9818C20.0454 11.5153 19.9338 8.76077 20.781 6.22028C20.8618 5.97723 20.9906 5.7522 21.1602 5.55808C21.3298 5.36395 21.5367 5.20454 21.7691 5.08896C22.0016 4.97338 22.255 4.9039 22.5148 4.88451C22.7746 4.86512 23.0358 4.89618 23.2834 4.97594ZM17.137 12.5923C17.2095 12.0815 17.0722 11.5633 16.7553 11.1518C16.5984 10.948 16.4021 10.7765 16.1776 10.6472C15.9531 10.5178 15.7049 10.4331 15.4471 10.3979C14.9264 10.3267 14.3982 10.4614 13.9787 10.7723C13.5592 11.0832 13.2827 11.5449 13.2102 12.0557C12.9665 13.7719 13.3706 15.5162 14.3465 16.9605C14.489 17.1762 14.6736 17.3621 14.8898 17.5074C15.1061 17.6527 15.3495 17.7545 15.606 17.8068C15.8626 17.8592 16.1272 17.8611 16.3845 17.8125C16.6418 17.7639 16.8868 17.6657 17.1052 17.5237C17.3236 17.3816 17.5111 17.1984 17.6568 16.9848C17.8026 16.7711 17.9037 16.5312 17.9543 16.279C18.005 16.0267 18.0041 15.7672 17.9518 15.5153C17.8995 15.2633 17.7968 15.0241 17.6496 14.8114C17.2087 14.1578 17.0263 13.3686 17.137 12.5923ZM9.48164 25.6397C10.1687 25.2639 10.9694 25.1524 11.733 25.3209C11.9895 25.3854 12.2566 25.3989 12.5185 25.3605C12.7804 25.3221 13.0318 25.2327 13.2579 25.0974C13.4839 24.962 13.68 24.7837 13.8346 24.5728C13.9892 24.3619 14.0992 24.1227 14.158 23.8694C14.2168 23.6161 14.2233 23.3538 14.177 23.098C14.1308 22.8422 14.0328 22.5981 13.8887 22.3801C13.7447 22.1622 13.5576 21.9747 13.3385 21.8288C13.1194 21.6829 12.8727 21.5816 12.613 21.5308C10.8935 21.1464 9.08983 21.4004 7.54997 22.2437C7.32267 22.3682 7.12259 22.5353 6.96113 22.7356C6.79967 22.9359 6.68001 23.1654 6.60897 23.4111C6.4655 23.9072 6.52881 24.4389 6.78497 24.8893C7.04112 25.3396 7.46914 25.6717 7.97486 25.8124C8.48059 25.9531 9.02259 25.891 9.48164 25.6397ZM8.07583 16.8283C8.60145 16.8283 9.10555 16.6234 9.47722 16.2588C9.8489 15.8942 10.0577 15.3996 10.0577 14.884C10.0577 14.3683 9.8489 13.8738 9.47722 13.5092C9.10555 13.1446 8.60145 12.9397 8.07583 12.9397H6.75458C6.22895 12.9397 5.72486 13.1446 5.35318 13.5092C4.98151 13.8738 4.77271 14.3683 4.77271 14.884C4.77271 15.3996 4.98151 15.8942 5.35318 16.2588C5.72486 16.6234 6.22895 16.8283 6.75458 16.8283H8.07583Z" fill="#F35100"/>
</svg>
