<svg width="39" height="35" viewBox="0 0 39 35" fill="none" xmlns="http://www.w3.org/2000/svg">
<path d="M17.138 6.05208C18.2902 4.51007 20.7417 4.74428 22.0823 6.52444L35.3184 24.1004C36.9194 26.2265 35.8498 28.9892 33.4255 28.9892L7.05718 28.9892C4.36688 28.9892 2.47868 25.6718 4.00572 23.6281L17.138 6.05208Z" fill="white"/>
<path d="M24.7273 28.9893C24.7273 27.761 24.169 26.583 23.1753 25.7144C22.1816 24.8459 20.8339 24.3579 19.4286 24.3579C18.0233 24.3579 16.6755 24.8459 15.6818 25.7144C14.6881 26.583 14.1299 27.761 14.1299 28.9893L19.4286 28.9893H24.7273Z" fill="white"/>
<rect x="18.251" y="21.4417" width="2.35497" height="5.66062" rx="1.17749" fill="white"/>
</svg>
