<svg width="49" height="43" viewBox="0 0 49 43" fill="none" xmlns="http://www.w3.org/2000/svg">
<path d="M21.7842 6.65623C22.938 5.13443 25.3636 5.36029 26.704 7.11431L44.5568 30.477C46.18 32.6012 45.1098 35.389 42.6713 35.389L7.10568 35.389C4.40695 35.389 2.52509 32.0585 4.0714 30.0189L21.7842 6.65623Z" fill="white"/>
<path d="M30.6302 35.389C30.6302 33.8895 29.9386 32.4514 28.7077 31.3911C27.4768 30.3308 25.8073 29.7351 24.0665 29.7351C22.3258 29.7351 20.6563 30.3308 19.4254 31.3911C18.1945 32.4514 17.5029 33.8895 17.5029 35.389L24.0665 35.389H30.6302Z" fill="#F35100"/>
<rect x="22.6079" y="26.1753" width="2.91716" height="6.91027" rx="1.45858" fill="#F35100"/>
</svg>
