<svg width="32" height="32" viewBox="0 0 32 32" fill="none" xmlns="http://www.w3.org/2000/svg">
<path fill-rule="evenodd" clip-rule="evenodd" d="M12.1667 9.33333C12.1667 7.91885 12.7286 6.56229 13.7288 5.5621C14.729 4.5619 16.0855 4 17.5 4C18.9145 4 20.271 4.5619 21.2712 5.5621C22.2714 6.56229 22.8333 7.91885 22.8333 9.33333C22.8333 10.7478 22.2714 12.1044 21.2712 13.1046C20.271 14.1048 18.9145 14.6667 17.5 14.6667C16.0855 14.6667 14.729 14.1048 13.7288 13.1046C12.7286 12.1044 12.1667 10.7478 12.1667 9.33333ZM12.1667 17.3333C10.3986 17.3333 8.70286 18.0357 7.45262 19.286C6.20238 20.5362 5.5 22.2319 5.5 24C5.5 25.0609 5.92143 26.0783 6.67157 26.8284C7.42172 27.5786 8.43913 28 9.5 28H25.5C26.5609 28 27.5783 27.5786 28.3284 26.8284C29.0786 26.0783 29.5 25.0609 29.5 24C29.5 22.2319 28.7976 20.5362 27.5474 19.286C26.2971 18.0357 24.6014 17.3333 22.8333 17.3333H12.1667Z" fill="white"/>
</svg>
