<svg width="41" height="42" viewBox="0 0 41 42" fill="none" xmlns="http://www.w3.org/2000/svg">
<path fill-rule="evenodd" clip-rule="evenodd" d="M13.6667 12.25C13.6667 10.3935 14.3866 8.61301 15.6681 7.30025C16.9496 5.9875 18.6877 5.25 20.5 5.25C22.3123 5.25 24.0504 5.9875 25.3319 7.30025C26.6134 8.61301 27.3333 10.3935 27.3333 12.25C27.3333 14.1065 26.6134 15.887 25.3319 17.1997C24.0504 18.5125 22.3123 19.25 20.5 19.25C18.6877 19.25 16.9496 18.5125 15.6681 17.1997C14.3866 15.887 13.6667 14.1065 13.6667 12.25ZM13.6667 22.75C11.4013 22.75 9.22867 23.6719 7.6268 25.3128C6.02492 26.9538 5.125 29.1794 5.125 31.5C5.125 32.8924 5.66495 34.2277 6.62608 35.2123C7.5872 36.1969 8.89077 36.75 10.25 36.75H30.75C32.1092 36.75 33.4128 36.1969 34.3739 35.2123C35.335 34.2277 35.875 32.8924 35.875 31.5C35.875 29.1794 34.9751 26.9538 33.3732 25.3128C31.7713 23.6719 29.5987 22.75 27.3333 22.75H13.6667Z" fill="white"/>
<path fill-rule="evenodd" clip-rule="evenodd" d="M13.6667 12.25C13.6667 10.3935 14.3867 8.61301 15.6682 7.30025C16.9497 5.9875 18.6878 5.25 20.5001 5.25C22.3124 5.25 24.0505 5.9875 25.332 7.30025C26.6135 8.61301 27.3334 10.3935 27.3334 12.25C27.3334 14.1065 26.6135 15.887 25.332 17.1997C24.0505 18.5125 22.3124 19.25 20.5001 19.25C18.6878 19.25 16.9497 18.5125 15.6682 17.1997C14.3867 15.887 13.6667 14.1065 13.6667 12.25Z" fill="#F35100"/>
</svg>
